<mxfile host="app.diagrams.net" agent="Mozilla/5.0 (Macintosh; Intel Mac OS X 10_15_7) AppleWebKit/537.36 (KHTML, like Gecko) Chrome/127.0.0.0 Safari/537.36" version="24.7.6" pages="8">
  <diagram name="Strona-1" id="ztFe8vEKR5u4dMYl-eXo">
    <mxGraphModel dx="1306" dy="729" grid="1" gridSize="10" guides="1" tooltips="1" connect="1" arrows="1" fold="1" page="1" pageScale="1" pageWidth="827" pageHeight="1169" math="0" shadow="0">
      <root>
        <mxCell id="0" />
        <mxCell id="1" parent="0" />
        <mxCell id="QvSOL86dASJhlNmGUnYe-15" value="&lt;font style=&quot;font-size: 10px;&quot;&gt;SEGMENTS&lt;/font&gt;&lt;div&gt;&lt;font style=&quot;font-size: 10px;&quot;&gt;AUDIENCE BUILDER&lt;/font&gt;&lt;/div&gt;&lt;div&gt;&lt;font style=&quot;font-size: 10px;&quot;&gt;CLIENT-SIDE TRACKING&lt;/font&gt;&lt;/div&gt;" style="rounded=0;whiteSpace=wrap;html=1;fillColor=#647687;fontColor=#ffffff;strokeColor=none;align=left;gradientColor=#FFFFFF;gradientDirection=east;fontStyle=1" parent="1" vertex="1">
          <mxGeometry x="70" y="330" width="570" height="60" as="geometry" />
        </mxCell>
        <mxCell id="QvSOL86dASJhlNmGUnYe-16" value="&lt;font style=&quot;font-size: 10px;&quot;&gt;&lt;b&gt;DATA&lt;/b&gt;&lt;/font&gt;" style="rounded=0;whiteSpace=wrap;html=1;fillColor=#647687;fontColor=#ffffff;strokeColor=none;align=left;gradientColor=#FFFFFF;gradientDirection=east;spacingRight=8;spacingLeft=1;" parent="1" vertex="1">
          <mxGeometry x="70" y="200" width="570" height="40" as="geometry" />
        </mxCell>
        <mxCell id="QvSOL86dASJhlNmGUnYe-20" value="" style="endArrow=none;dashed=1;html=1;dashPattern=1 3;strokeWidth=2;rounded=0;exitX=1;exitY=0.5;exitDx=0;exitDy=0;" parent="1" source="QvSOL86dASJhlNmGUnYe-2" edge="1">
          <mxGeometry width="50" height="50" relative="1" as="geometry">
            <mxPoint x="480" y="310" as="sourcePoint" />
            <mxPoint x="640" y="480" as="targetPoint" />
          </mxGeometry>
        </mxCell>
        <mxCell id="QvSOL86dASJhlNmGUnYe-19" value="" style="endArrow=none;dashed=1;html=1;dashPattern=1 3;strokeWidth=2;rounded=0;exitX=1;exitY=0.5;exitDx=0;exitDy=0;" parent="1" source="QvSOL86dASJhlNmGUnYe-15" edge="1">
          <mxGeometry width="50" height="50" relative="1" as="geometry">
            <mxPoint x="480" y="310" as="sourcePoint" />
            <mxPoint x="640" y="365" as="targetPoint" />
          </mxGeometry>
        </mxCell>
        <mxCell id="J3S_9y-BXET9EneJLnSe-1" value="&lt;b&gt;&lt;font style=&quot;font-size: 17px;&quot;&gt;IBEXA CDP&lt;/font&gt;&lt;/b&gt;" style="rounded=1;whiteSpace=wrap;html=1;fillColor=#6d8764;fontColor=#ffffff;strokeColor=#3A5431;" parent="1" vertex="1">
          <mxGeometry x="335" y="320" width="90" height="80" as="geometry" />
        </mxCell>
        <mxCell id="J3S_9y-BXET9EneJLnSe-12" value="" style="group" parent="1" vertex="1" connectable="0">
          <mxGeometry x="440" y="190" width="60" height="60" as="geometry" />
        </mxCell>
        <mxCell id="J3S_9y-BXET9EneJLnSe-14" value="" style="group" parent="J3S_9y-BXET9EneJLnSe-12" vertex="1" connectable="0">
          <mxGeometry width="60" height="60" as="geometry" />
        </mxCell>
        <mxCell id="J3S_9y-BXET9EneJLnSe-7" value="" style="ellipse;whiteSpace=wrap;html=1;aspect=fixed;fillColor=#d5e8d4;strokeColor=#82b366;" parent="J3S_9y-BXET9EneJLnSe-14" vertex="1">
          <mxGeometry width="60" height="60" as="geometry" />
        </mxCell>
        <mxCell id="J3S_9y-BXET9EneJLnSe-4" value="" style="verticalLabelPosition=bottom;html=1;verticalAlign=top;align=center;strokeColor=none;fillColor=#85B869;shape=mxgraph.azure.file_2;pointerEvents=1;" parent="J3S_9y-BXET9EneJLnSe-14" vertex="1">
          <mxGeometry x="15.75" y="15" width="28.5" height="30" as="geometry" />
        </mxCell>
        <mxCell id="J3S_9y-BXET9EneJLnSe-13" value="" style="group" parent="1" vertex="1" connectable="0">
          <mxGeometry x="350" y="190" width="60" height="60" as="geometry" />
        </mxCell>
        <mxCell id="J3S_9y-BXET9EneJLnSe-8" value="" style="ellipse;whiteSpace=wrap;html=1;aspect=fixed;fillColor=#ffe6cc;strokeColor=#d79b00;" parent="J3S_9y-BXET9EneJLnSe-13" vertex="1">
          <mxGeometry width="60" height="60" as="geometry" />
        </mxCell>
        <mxCell id="J3S_9y-BXET9EneJLnSe-10" value="" style="sketch=0;pointerEvents=1;shadow=0;dashed=0;html=1;strokeColor=none;labelPosition=center;verticalLabelPosition=bottom;verticalAlign=top;outlineConnect=0;align=center;shape=mxgraph.office.users.user;fillColor=#AB8A6B;" parent="J3S_9y-BXET9EneJLnSe-13" vertex="1">
          <mxGeometry x="16.200000000000045" y="15" width="27.6" height="30" as="geometry" />
        </mxCell>
        <mxCell id="J3S_9y-BXET9EneJLnSe-16" value="&lt;font style=&quot;font-size: 10px;&quot;&gt;PRODUCT&lt;/font&gt;" style="text;strokeColor=none;align=center;fillColor=none;html=1;verticalAlign=middle;whiteSpace=wrap;rounded=0;fontStyle=1" parent="1" vertex="1">
          <mxGeometry x="260" y="160" width="60" height="30" as="geometry" />
        </mxCell>
        <mxCell id="J3S_9y-BXET9EneJLnSe-17" value="&lt;font style=&quot;font-size: 10px;&quot;&gt;USER&lt;/font&gt;" style="text;strokeColor=none;align=center;fillColor=none;html=1;verticalAlign=middle;whiteSpace=wrap;rounded=0;fontStyle=1" parent="1" vertex="1">
          <mxGeometry x="350" y="160" width="60" height="30" as="geometry" />
        </mxCell>
        <mxCell id="J3S_9y-BXET9EneJLnSe-18" value="&lt;font style=&quot;font-size: 10px;&quot;&gt;CONTENT&lt;/font&gt;" style="text;strokeColor=none;align=center;fillColor=none;html=1;verticalAlign=middle;whiteSpace=wrap;rounded=0;fontStyle=1" parent="1" vertex="1">
          <mxGeometry x="440" y="160" width="60" height="30" as="geometry" />
        </mxCell>
        <mxCell id="QvSOL86dASJhlNmGUnYe-1" value="&lt;font style=&quot;font-size: 10px;&quot;&gt;EXPORT&lt;/font&gt;" style="rounded=0;whiteSpace=wrap;html=1;fillColor=#647687;fontColor=#ffffff;strokeColor=none;gradientColor=#FFFFFF;gradientDirection=east;align=left;fontStyle=1" parent="1" vertex="1">
          <mxGeometry x="70" y="290" width="570" height="20" as="geometry" />
        </mxCell>
        <mxCell id="QvSOL86dASJhlNmGUnYe-2" value="&lt;font style=&quot;font-size: 10px;&quot;&gt;CUSTOMIZATION&lt;/font&gt;" style="rounded=0;whiteSpace=wrap;html=1;fillColor=#647687;fontColor=#ffffff;strokeColor=none;align=left;gradientColor=#FFFFFF;gradientDirection=east;fontStyle=1" parent="1" vertex="1">
          <mxGeometry x="70" y="470" width="570" height="20" as="geometry" />
        </mxCell>
        <mxCell id="QvSOL86dASJhlNmGUnYe-5" value="&lt;span style=&quot;font-size: 9px;&quot;&gt;RECOMMENDATIONS&lt;/span&gt;" style="rounded=0;whiteSpace=wrap;html=1;fontSize=9;fillColor=#f5f5f5;fontColor=#333333;strokeColor=#9C9C9C;shadow=0;gradientColor=none;" parent="1" vertex="1">
          <mxGeometry x="450" y="460" width="110" height="40" as="geometry" />
        </mxCell>
        <mxCell id="QvSOL86dASJhlNmGUnYe-7" value="&lt;span style=&quot;font-size: 9px;&quot;&gt;NEWSLETTER&lt;/span&gt;" style="rounded=0;whiteSpace=wrap;html=1;fontSize=9;fillColor=#f5f5f5;fontColor=#333333;strokeColor=#9C9C9C;shadow=0;gradientColor=none;" parent="1" vertex="1">
          <mxGeometry x="200" y="460" width="110" height="40" as="geometry" />
        </mxCell>
        <mxCell id="QvSOL86dASJhlNmGUnYe-8" value="&lt;span style=&quot;font-size: 9px;&quot;&gt;CUSTOMIZED CONTENT&lt;/span&gt;" style="rounded=0;whiteSpace=wrap;html=1;fontSize=9;fillColor=#f5f5f5;fontColor=#333333;strokeColor=#9C9C9C;shadow=0;gradientColor=none;" parent="1" vertex="1">
          <mxGeometry x="325" y="460" width="110" height="40" as="geometry" />
        </mxCell>
        <mxCell id="QvSOL86dASJhlNmGUnYe-9" value="" style="ellipse;whiteSpace=wrap;html=1;aspect=fixed;fillColor=#f5f5f5;fontColor=#333333;strokeColor=#9C9C9C;shadow=0;gradientColor=none;" parent="1" vertex="1">
          <mxGeometry x="580" y="490" width="10" height="10" as="geometry" />
        </mxCell>
        <mxCell id="QvSOL86dASJhlNmGUnYe-10" value="" style="ellipse;whiteSpace=wrap;html=1;aspect=fixed;fillColor=#f5f5f5;fontColor=#333333;strokeColor=#9C9C9C;shadow=0;gradientColor=none;" parent="1" vertex="1">
          <mxGeometry x="600" y="490" width="10" height="10" as="geometry" />
        </mxCell>
        <mxCell id="QvSOL86dASJhlNmGUnYe-11" value="" style="ellipse;whiteSpace=wrap;html=1;aspect=fixed;fillColor=#f5f5f5;fontColor=#333333;strokeColor=#9C9C9C;shadow=0;gradientColor=none;" parent="1" vertex="1">
          <mxGeometry x="620" y="490" width="10" height="10" as="geometry" />
        </mxCell>
        <mxCell id="QvSOL86dASJhlNmGUnYe-18" value="" style="endArrow=none;dashed=1;html=1;dashPattern=1 3;strokeWidth=2;rounded=0;exitX=1;exitY=0.5;exitDx=0;exitDy=0;" parent="1" source="QvSOL86dASJhlNmGUnYe-1" edge="1">
          <mxGeometry width="50" height="50" relative="1" as="geometry">
            <mxPoint x="480" y="310" as="sourcePoint" />
            <mxPoint x="640" y="300" as="targetPoint" />
          </mxGeometry>
        </mxCell>
        <mxCell id="QvSOL86dASJhlNmGUnYe-22" value="" style="endArrow=classic;html=1;rounded=0;entryX=0.5;entryY=0;entryDx=0;entryDy=0;" parent="1" target="J3S_9y-BXET9EneJLnSe-1" edge="1">
          <mxGeometry width="50" height="50" relative="1" as="geometry">
            <mxPoint x="380" y="260" as="sourcePoint" />
            <mxPoint x="530" y="260" as="targetPoint" />
          </mxGeometry>
        </mxCell>
        <mxCell id="QvSOL86dASJhlNmGUnYe-23" value="" style="endArrow=classic;html=1;rounded=0;entryX=1;entryY=0;entryDx=0;entryDy=0;" parent="1" target="J3S_9y-BXET9EneJLnSe-1" edge="1">
          <mxGeometry width="50" height="50" relative="1" as="geometry">
            <mxPoint x="470" y="260" as="sourcePoint" />
            <mxPoint x="530" y="260" as="targetPoint" />
            <Array as="points">
              <mxPoint x="470" y="300" />
            </Array>
          </mxGeometry>
        </mxCell>
        <mxCell id="QvSOL86dASJhlNmGUnYe-24" value="" style="endArrow=classic;html=1;rounded=0;entryX=0.5;entryY=0;entryDx=0;entryDy=0;" parent="1" target="QvSOL86dASJhlNmGUnYe-7" edge="1">
          <mxGeometry width="50" height="50" relative="1" as="geometry">
            <mxPoint x="320" y="390" as="sourcePoint" />
            <mxPoint x="530" y="260" as="targetPoint" />
            <Array as="points">
              <mxPoint x="255" y="430" />
            </Array>
          </mxGeometry>
        </mxCell>
        <mxCell id="QvSOL86dASJhlNmGUnYe-25" value="" style="endArrow=classic;html=1;rounded=0;entryX=0.5;entryY=0;entryDx=0;entryDy=0;" parent="1" target="QvSOL86dASJhlNmGUnYe-8" edge="1">
          <mxGeometry width="50" height="50" relative="1" as="geometry">
            <mxPoint x="380" y="410" as="sourcePoint" />
            <mxPoint x="530" y="260" as="targetPoint" />
          </mxGeometry>
        </mxCell>
        <mxCell id="QvSOL86dASJhlNmGUnYe-26" value="" style="endArrow=classic;html=1;rounded=0;entryX=0.5;entryY=0;entryDx=0;entryDy=0;" parent="1" target="QvSOL86dASJhlNmGUnYe-5" edge="1">
          <mxGeometry width="50" height="50" relative="1" as="geometry">
            <mxPoint x="440" y="390" as="sourcePoint" />
            <mxPoint x="530" y="260" as="targetPoint" />
            <Array as="points">
              <mxPoint x="505" y="430" />
            </Array>
          </mxGeometry>
        </mxCell>
        <mxCell id="QvSOL86dASJhlNmGUnYe-29" value="" style="shape=mxgraph.signs.tech.mail;html=1;pointerEvents=1;fillColor=#647687;strokeColor=none;verticalLabelPosition=bottom;verticalAlign=top;align=center;" parent="1" vertex="1">
          <mxGeometry x="240.66" y="492.75" width="28.67" height="21.5" as="geometry" />
        </mxCell>
        <mxCell id="QvSOL86dASJhlNmGUnYe-31" value="" style="html=1;verticalLabelPosition=bottom;align=center;labelBackgroundColor=#ffffff;verticalAlign=top;strokeWidth=3;strokeColor=#647687;shadow=0;dashed=0;shape=mxgraph.ios7.icons.star;" parent="1" vertex="1">
          <mxGeometry x="494" y="490" width="22.22" height="20" as="geometry" />
        </mxCell>
        <mxCell id="m_-CzDnQhb7_2_h_dkDO-2" value="" style="html=1;verticalLabelPosition=bottom;align=center;labelBackgroundColor=#ffffff;verticalAlign=top;strokeWidth=3;strokeColor=#647687;shadow=0;dashed=0;shape=mxgraph.ios7.icons.volume;pointerEvents=1;rotation=90;" parent="1" vertex="1">
          <mxGeometry x="368.32" y="489.44" width="25" height="31.63" as="geometry" />
        </mxCell>
        <mxCell id="QvSOL86dASJhlNmGUnYe-21" value="" style="endArrow=classic;html=1;rounded=0;entryX=0;entryY=0;entryDx=0;entryDy=0;" parent="1" target="J3S_9y-BXET9EneJLnSe-1" edge="1">
          <mxGeometry width="50" height="50" relative="1" as="geometry">
            <mxPoint x="290" y="260" as="sourcePoint" />
            <mxPoint x="330" y="330" as="targetPoint" />
            <Array as="points">
              <mxPoint x="290" y="300" />
            </Array>
          </mxGeometry>
        </mxCell>
        <mxCell id="J3S_9y-BXET9EneJLnSe-11" value="" style="group" parent="1" vertex="1" connectable="0">
          <mxGeometry x="260" y="190" width="60" height="60" as="geometry" />
        </mxCell>
        <mxCell id="J3S_9y-BXET9EneJLnSe-6" value="" style="ellipse;whiteSpace=wrap;html=1;aspect=fixed;fillColor=#dae8fc;strokeColor=#6c8ebf;" parent="J3S_9y-BXET9EneJLnSe-11" vertex="1">
          <mxGeometry width="60" height="60" as="geometry" />
        </mxCell>
        <mxCell id="J3S_9y-BXET9EneJLnSe-3" value="" style="sketch=0;pointerEvents=1;shadow=0;dashed=0;html=1;strokeColor=none;fillColor=#5F7DA8;labelPosition=center;verticalLabelPosition=bottom;verticalAlign=top;outlineConnect=0;align=center;shape=mxgraph.office.concepts.marketplace_shopping_bag;" parent="J3S_9y-BXET9EneJLnSe-11" vertex="1">
          <mxGeometry x="17.089999999999975" y="13.5" width="25.83" height="33" as="geometry" />
        </mxCell>
        <mxCell id="m_-CzDnQhb7_2_h_dkDO-4" value="" style="group" parent="1" vertex="1" connectable="0">
          <mxGeometry x="350" y="560" width="60" height="60" as="geometry" />
        </mxCell>
        <mxCell id="m_-CzDnQhb7_2_h_dkDO-5" value="" style="ellipse;whiteSpace=wrap;html=1;aspect=fixed;fillColor=#667F8A;strokeColor=#10739e;" parent="m_-CzDnQhb7_2_h_dkDO-4" vertex="1">
          <mxGeometry width="60" height="60" as="geometry" />
        </mxCell>
        <mxCell id="m_-CzDnQhb7_2_h_dkDO-6" value="" style="sketch=0;pointerEvents=1;shadow=0;dashed=0;html=1;strokeColor=#10739e;labelPosition=center;verticalLabelPosition=bottom;verticalAlign=top;outlineConnect=0;align=center;shape=mxgraph.office.users.user;fillColor=#b1ddf0;" parent="m_-CzDnQhb7_2_h_dkDO-4" vertex="1">
          <mxGeometry x="16.200000000000045" y="15" width="27.6" height="30" as="geometry" />
        </mxCell>
        <mxCell id="m_-CzDnQhb7_2_h_dkDO-7" value="&lt;font style=&quot;font-size: 10px;&quot;&gt;CUSTOMER&lt;/font&gt;" style="text;strokeColor=none;align=center;fillColor=none;html=1;verticalAlign=middle;whiteSpace=wrap;rounded=0;fontStyle=1" parent="1" vertex="1">
          <mxGeometry x="350.82" y="620" width="60" height="30" as="geometry" />
        </mxCell>
        <mxCell id="m_-CzDnQhb7_2_h_dkDO-8" value="" style="endArrow=classic;html=1;rounded=0;entryX=0;entryY=0;entryDx=0;entryDy=0;" parent="1" target="m_-CzDnQhb7_2_h_dkDO-5" edge="1">
          <mxGeometry width="50" height="50" relative="1" as="geometry">
            <mxPoint x="260" y="520" as="sourcePoint" />
            <mxPoint x="530" y="350" as="targetPoint" />
            <Array as="points">
              <mxPoint x="260" y="530" />
              <mxPoint x="359" y="530" />
            </Array>
          </mxGeometry>
        </mxCell>
        <mxCell id="m_-CzDnQhb7_2_h_dkDO-9" value="" style="endArrow=classic;html=1;rounded=0;entryX=0.5;entryY=0;entryDx=0;entryDy=0;" parent="1" target="m_-CzDnQhb7_2_h_dkDO-5" edge="1">
          <mxGeometry width="50" height="50" relative="1" as="geometry">
            <mxPoint x="380" y="530" as="sourcePoint" />
            <mxPoint x="530" y="350" as="targetPoint" />
          </mxGeometry>
        </mxCell>
        <mxCell id="m_-CzDnQhb7_2_h_dkDO-10" value="" style="endArrow=classic;html=1;rounded=0;entryX=1;entryY=0;entryDx=0;entryDy=0;" parent="1" target="m_-CzDnQhb7_2_h_dkDO-5" edge="1">
          <mxGeometry width="50" height="50" relative="1" as="geometry">
            <mxPoint x="505" y="520" as="sourcePoint" />
            <mxPoint x="530" y="360" as="targetPoint" />
            <Array as="points">
              <mxPoint x="505" y="530" />
              <mxPoint x="401" y="530" />
            </Array>
          </mxGeometry>
        </mxCell>
      </root>
    </mxGraphModel>
  </diagram>
  <diagram id="cz5cb30dAjBTYJE_1cSr" name="Strona-2">
    <mxGraphModel dx="1434" dy="761" grid="1" gridSize="10" guides="1" tooltips="1" connect="1" arrows="1" fold="1" page="1" pageScale="1" pageWidth="827" pageHeight="1169" math="0" shadow="0">
      <root>
        <mxCell id="0" />
        <mxCell id="1" parent="0" />
        <mxCell id="HgFy_DbpHLSYazznPz3K-11" value="" style="shape=flexArrow;endArrow=classic;html=1;rounded=0;exitX=1.009;exitY=0.9;exitDx=0;exitDy=0;exitPerimeter=0;fillColor=#647687;strokeColor=none;" edge="1" parent="1" source="HgFy_DbpHLSYazznPz3K-7">
          <mxGeometry width="50" height="50" relative="1" as="geometry">
            <mxPoint x="390" y="420" as="sourcePoint" />
            <mxPoint x="340" y="400" as="targetPoint" />
          </mxGeometry>
        </mxCell>
        <mxCell id="kFh692MD9h84TMi_Ekm9-2" value="" style="ellipse;whiteSpace=wrap;html=1;aspect=fixed;fillColor=#ffe6cc;strokeColor=#d79b00;shadow=0;" vertex="1" parent="1">
          <mxGeometry x="335" y="360" width="110" height="110" as="geometry" />
        </mxCell>
        <mxCell id="kFh692MD9h84TMi_Ekm9-3" value="" style="sketch=0;pointerEvents=1;shadow=0;dashed=0;html=1;strokeColor=none;labelPosition=center;verticalLabelPosition=bottom;verticalAlign=top;outlineConnect=0;align=center;shape=mxgraph.office.users.user;fillColor=#AB8A6B;" vertex="1" parent="1">
          <mxGeometry x="364.7000000000001" y="387.5" width="50.6" height="55" as="geometry" />
        </mxCell>
        <mxCell id="HgFy_DbpHLSYazznPz3K-1" value="&lt;h3 style=&quot;box-sizing: border-box; margin-bottom: 0px; margin-top: 0px; font-weight: 500; line-height: 1.2;&quot;&gt;&lt;span style=&quot;box-sizing: border-box; font-weight: 700; font-size: 12px;&quot;&gt;&lt;font style=&quot;font-size: 12px;&quot;&gt;360°&amp;nbsp;&lt;/font&gt;&lt;/span&gt;&lt;/h3&gt;&lt;h3 style=&quot;box-sizing: border-box; margin-bottom: 0px; margin-top: 0px; font-weight: 500; line-height: 1.2;&quot;&gt;&lt;span style=&quot;box-sizing: border-box; font-weight: 700; font-size: 12px;&quot;&gt;&lt;font style=&quot;font-size: 12px;&quot;&gt;CUSTOMER&amp;nbsp;&lt;/font&gt;&lt;/span&gt;&lt;/h3&gt;&lt;h3 style=&quot;box-sizing: border-box; margin-bottom: 0px; margin-top: 0px; font-weight: 500; line-height: 1.2;&quot;&gt;&lt;span style=&quot;box-sizing: border-box; font-weight: 700; font-size: 12px;&quot;&gt;&lt;font style=&quot;font-size: 12px;&quot;&gt;PROFILE&lt;/font&gt;&lt;/span&gt;&lt;/h3&gt;" style="rounded=1;whiteSpace=wrap;html=1;fillColor=#AD9C8B;strokeColor=none;fontColor=#FFFFFF;" vertex="1" parent="1">
          <mxGeometry x="340" y="450" width="100" height="60" as="geometry" />
        </mxCell>
        <mxCell id="HgFy_DbpHLSYazznPz3K-5" value="INTERACTIONS" style="rounded=1;whiteSpace=wrap;html=1;fillColor=#dae8fc;strokeColor=none;fontColor=#000000;" vertex="1" parent="1">
          <mxGeometry x="335" y="240" width="110" height="60" as="geometry" />
        </mxCell>
        <mxCell id="HgFy_DbpHLSYazznPz3K-6" value="BEHAVIORS" style="rounded=1;whiteSpace=wrap;html=1;fillColor=#d5e8d4;strokeColor=none;fontColor=#000000;" vertex="1" parent="1">
          <mxGeometry x="500" y="330" width="110" height="60" as="geometry" />
        </mxCell>
        <mxCell id="HgFy_DbpHLSYazznPz3K-7" value="DEMOGRAPHICS" style="rounded=1;whiteSpace=wrap;html=1;fillColor=#f5f5f5;fontColor=#000000;strokeColor=none;" vertex="1" parent="1">
          <mxGeometry x="180" y="330" width="110" height="60" as="geometry" />
        </mxCell>
        <mxCell id="HgFy_DbpHLSYazznPz3K-8" value="TRANSACTIONAL&lt;div&gt;DATA&lt;/div&gt;" style="rounded=1;whiteSpace=wrap;html=1;fillColor=#EBEFE1;fontColor=#000000;strokeColor=none;" vertex="1" parent="1">
          <mxGeometry x="335" y="570" width="110" height="60" as="geometry" />
        </mxCell>
        <mxCell id="HgFy_DbpHLSYazznPz3K-12" value="" style="shape=flexArrow;endArrow=classic;html=1;rounded=0;entryX=0.5;entryY=0;entryDx=0;entryDy=0;fillColor=#647687;strokeColor=none;" edge="1" parent="1" source="HgFy_DbpHLSYazznPz3K-5" target="kFh692MD9h84TMi_Ekm9-2">
          <mxGeometry width="50" height="50" relative="1" as="geometry">
            <mxPoint x="390" y="420" as="sourcePoint" />
            <mxPoint x="440" y="370" as="targetPoint" />
          </mxGeometry>
        </mxCell>
        <mxCell id="HgFy_DbpHLSYazznPz3K-14" value="" style="shape=flexArrow;endArrow=classic;html=1;rounded=0;exitX=0.5;exitY=0;exitDx=0;exitDy=0;fillColor=#647687;strokeColor=none;" edge="1" parent="1" source="HgFy_DbpHLSYazznPz3K-8">
          <mxGeometry width="50" height="50" relative="1" as="geometry">
            <mxPoint x="390" y="420" as="sourcePoint" />
            <mxPoint x="390" y="510" as="targetPoint" />
          </mxGeometry>
        </mxCell>
        <mxCell id="HgFy_DbpHLSYazznPz3K-15" value="" style="shape=flexArrow;endArrow=classic;html=1;rounded=0;fillColor=#647687;strokeColor=none;" edge="1" parent="1" source="HgFy_DbpHLSYazznPz3K-6">
          <mxGeometry width="50" height="50" relative="1" as="geometry">
            <mxPoint x="390" y="420" as="sourcePoint" />
            <mxPoint x="440" y="400" as="targetPoint" />
          </mxGeometry>
        </mxCell>
        <mxCell id="HgFy_DbpHLSYazznPz3K-16" value="" style="shape=flexArrow;endArrow=classic;html=1;rounded=0;entryX=0;entryY=0;entryDx=0;entryDy=0;fillColor=#647687;strokeColor=none;" edge="1" parent="1" source="HgFy_DbpHLSYazznPz3K-10" target="HgFy_DbpHLSYazznPz3K-1">
          <mxGeometry width="50" height="50" relative="1" as="geometry">
            <mxPoint x="390" y="420" as="sourcePoint" />
            <mxPoint x="440" y="370" as="targetPoint" />
          </mxGeometry>
        </mxCell>
        <mxCell id="HgFy_DbpHLSYazznPz3K-10" value="HABITS" style="rounded=1;whiteSpace=wrap;html=1;fillColor=#A4C2DE;fontColor=#000000;strokeColor=none;" vertex="1" parent="1">
          <mxGeometry x="180" y="480" width="110" height="60" as="geometry" />
        </mxCell>
        <mxCell id="HgFy_DbpHLSYazznPz3K-17" value="" style="shape=flexArrow;endArrow=classic;html=1;rounded=0;entryX=1;entryY=0;entryDx=0;entryDy=0;strokeColor=#314354;fillColor=#647687;" edge="1" parent="1" source="HgFy_DbpHLSYazznPz3K-9" target="HgFy_DbpHLSYazznPz3K-1">
          <mxGeometry width="50" height="50" relative="1" as="geometry">
            <mxPoint x="390" y="420" as="sourcePoint" />
            <mxPoint x="440" y="370" as="targetPoint" />
          </mxGeometry>
        </mxCell>
        <mxCell id="HgFy_DbpHLSYazznPz3K-9" value="PREFERENCES" style="rounded=1;whiteSpace=wrap;html=1;fillColor=#e1d5e7;strokeColor=none;fontColor=#000000;" vertex="1" parent="1">
          <mxGeometry x="500" y="480" width="110" height="60" as="geometry" />
        </mxCell>
        <mxCell id="HgFy_DbpHLSYazznPz3K-22" value="" style="html=1;verticalLabelPosition=bottom;align=center;labelBackgroundColor=#ffffff;verticalAlign=top;strokeWidth=2;strokeColor=#647687;shadow=0;dashed=0;shape=mxgraph.ios7.icons.preferences;pointerEvents=1;fillColor=none;fontColor=#ffffff;" vertex="1" parent="1">
          <mxGeometry x="540" y="320" width="30" height="24" as="geometry" />
        </mxCell>
        <mxCell id="HgFy_DbpHLSYazznPz3K-23" value="" style="sketch=0;outlineConnect=0;fontColor=#ffffff;fillColor=#647687;strokeColor=#647687;dashed=0;verticalLabelPosition=bottom;verticalAlign=top;align=center;html=1;fontSize=12;fontStyle=0;aspect=fixed;pointerEvents=1;shape=mxgraph.aws4.iot_sitewise_asset_properties;" vertex="1" parent="1">
          <mxGeometry x="216" y="460" width="38" height="38" as="geometry" />
        </mxCell>
        <mxCell id="HgFy_DbpHLSYazznPz3K-26" value="" style="sketch=0;pointerEvents=1;shadow=0;dashed=0;html=1;strokeColor=#647687;fillColor=#647687;labelPosition=center;verticalLabelPosition=bottom;verticalAlign=top;outlineConnect=0;align=center;shape=mxgraph.office.concepts.publish;fontColor=#ffffff;" vertex="1" parent="1">
          <mxGeometry x="374" y="220" width="40" height="38" as="geometry" />
        </mxCell>
        <mxCell id="HgFy_DbpHLSYazznPz3K-30" value="" style="shadow=0;dashed=0;html=1;strokeColor=#314354;fillColor=#647687;labelPosition=center;verticalLabelPosition=bottom;verticalAlign=top;align=center;outlineConnect=0;shape=mxgraph.veeam.globe;fontColor=#ffffff;" vertex="1" parent="1">
          <mxGeometry x="217.6" y="309.2" width="34.8" height="34.8" as="geometry" />
        </mxCell>
        <mxCell id="HgFy_DbpHLSYazznPz3K-31" value="" style="html=1;verticalLabelPosition=bottom;align=center;labelBackgroundColor=#ffffff;verticalAlign=top;strokeWidth=2;strokeColor=#647687;shadow=0;dashed=0;shape=mxgraph.ios7.icons.shopping_cart;fillColor=none;fontColor=#ffffff;" vertex="1" parent="1">
          <mxGeometry x="372.5" y="616" width="35" height="34.5" as="geometry" />
        </mxCell>
        <mxCell id="HgFy_DbpHLSYazznPz3K-33" value="" style="shape=image;html=1;verticalAlign=top;verticalLabelPosition=bottom;labelBackgroundColor=#ffffff;imageAspect=0;aspect=fixed;image=https://cdn4.iconfinder.com/data/icons/evil-icons-user-interface/64/like-128.png;imageBackground=none;shadow=0;connectable=1;opacity=80;" vertex="1" parent="1">
          <mxGeometry x="533" y="457" width="44" height="44" as="geometry" />
        </mxCell>
      </root>
    </mxGraphModel>
  </diagram>
  <diagram id="6ZXoIGlEFSNLFFNsCw0y" name="Strona-3">
    <mxGraphModel dx="1434" dy="761" grid="1" gridSize="10" guides="1" tooltips="1" connect="1" arrows="1" fold="1" page="1" pageScale="1" pageWidth="827" pageHeight="1169" math="0" shadow="0">
      <root>
        <mxCell id="0" />
        <mxCell id="1" parent="0" />
        <mxCell id="Hng1eqhhagG_9mxlwol3-1" value="" style="endArrow=none;dashed=1;html=1;dashPattern=1 3;strokeWidth=2;rounded=0;exitX=1;exitY=0.5;exitDx=0;exitDy=0;" edge="1" parent="1">
          <mxGeometry width="50" height="50" relative="1" as="geometry">
            <mxPoint x="640" y="480" as="sourcePoint" />
            <mxPoint x="640" y="480" as="targetPoint" />
          </mxGeometry>
        </mxCell>
        <mxCell id="Hng1eqhhagG_9mxlwol3-2" value="" style="endArrow=none;dashed=1;html=1;dashPattern=1 3;strokeWidth=2;rounded=0;exitX=1;exitY=0.5;exitDx=0;exitDy=0;" edge="1" parent="1">
          <mxGeometry width="50" height="50" relative="1" as="geometry">
            <mxPoint x="640" y="360" as="sourcePoint" />
            <mxPoint x="640" y="365" as="targetPoint" />
          </mxGeometry>
        </mxCell>
        <mxCell id="Hng1eqhhagG_9mxlwol3-3" value="&lt;b&gt;&lt;font style=&quot;font-size: 17px;&quot;&gt;IBEXA CDP&lt;/font&gt;&lt;/b&gt;" style="rounded=1;whiteSpace=wrap;html=1;fillColor=#6d8764;fontColor=#ffffff;strokeColor=#3A5431;" vertex="1" parent="1">
          <mxGeometry x="335" y="320" width="90" height="80" as="geometry" />
        </mxCell>
        <mxCell id="Hng1eqhhagG_9mxlwol3-4" value="" style="group" vertex="1" connectable="0" parent="1">
          <mxGeometry x="440" y="190" width="60" height="60" as="geometry" />
        </mxCell>
        <mxCell id="Hng1eqhhagG_9mxlwol3-5" value="" style="group" vertex="1" connectable="0" parent="Hng1eqhhagG_9mxlwol3-4">
          <mxGeometry width="60" height="60" as="geometry" />
        </mxCell>
        <mxCell id="Hng1eqhhagG_9mxlwol3-6" value="" style="ellipse;whiteSpace=wrap;html=1;aspect=fixed;fillColor=#d5e8d4;strokeColor=#82b366;" vertex="1" parent="Hng1eqhhagG_9mxlwol3-5">
          <mxGeometry width="60" height="60" as="geometry" />
        </mxCell>
        <mxCell id="Hng1eqhhagG_9mxlwol3-7" value="" style="verticalLabelPosition=bottom;html=1;verticalAlign=top;align=center;strokeColor=none;fillColor=#85B869;shape=mxgraph.azure.file_2;pointerEvents=1;" vertex="1" parent="Hng1eqhhagG_9mxlwol3-5">
          <mxGeometry x="15.75" y="15" width="28.5" height="30" as="geometry" />
        </mxCell>
        <mxCell id="Hng1eqhhagG_9mxlwol3-8" value="" style="group" vertex="1" connectable="0" parent="1">
          <mxGeometry x="350" y="190" width="60" height="60" as="geometry" />
        </mxCell>
        <mxCell id="Hng1eqhhagG_9mxlwol3-9" value="" style="ellipse;whiteSpace=wrap;html=1;aspect=fixed;fillColor=#ffe6cc;strokeColor=#d79b00;" vertex="1" parent="Hng1eqhhagG_9mxlwol3-8">
          <mxGeometry width="60" height="60" as="geometry" />
        </mxCell>
        <mxCell id="Hng1eqhhagG_9mxlwol3-10" value="" style="sketch=0;pointerEvents=1;shadow=0;dashed=0;html=1;strokeColor=none;labelPosition=center;verticalLabelPosition=bottom;verticalAlign=top;outlineConnect=0;align=center;shape=mxgraph.office.users.user;fillColor=#AB8A6B;" vertex="1" parent="Hng1eqhhagG_9mxlwol3-8">
          <mxGeometry x="16.200000000000045" y="15" width="27.6" height="30" as="geometry" />
        </mxCell>
        <mxCell id="Hng1eqhhagG_9mxlwol3-11" value="&lt;font style=&quot;font-size: 10px;&quot;&gt;PRODUCT&lt;/font&gt;" style="text;strokeColor=none;align=center;fillColor=none;html=1;verticalAlign=middle;whiteSpace=wrap;rounded=0;fontStyle=1" vertex="1" parent="1">
          <mxGeometry x="260" y="160" width="60" height="30" as="geometry" />
        </mxCell>
        <mxCell id="Hng1eqhhagG_9mxlwol3-12" value="&lt;font style=&quot;font-size: 10px;&quot;&gt;USER&lt;/font&gt;" style="text;strokeColor=none;align=center;fillColor=none;html=1;verticalAlign=middle;whiteSpace=wrap;rounded=0;fontStyle=1" vertex="1" parent="1">
          <mxGeometry x="350" y="160" width="60" height="30" as="geometry" />
        </mxCell>
        <mxCell id="Hng1eqhhagG_9mxlwol3-13" value="&lt;font style=&quot;font-size: 10px;&quot;&gt;CONTENT&lt;/font&gt;" style="text;strokeColor=none;align=center;fillColor=none;html=1;verticalAlign=middle;whiteSpace=wrap;rounded=0;fontStyle=1" vertex="1" parent="1">
          <mxGeometry x="440" y="160" width="60" height="30" as="geometry" />
        </mxCell>
        <mxCell id="Hng1eqhhagG_9mxlwol3-14" value="&lt;span style=&quot;font-size: 9px;&quot;&gt;RECOMMENDATIONS&lt;/span&gt;" style="rounded=0;whiteSpace=wrap;html=1;fontSize=9;fillColor=#f5f5f5;fontColor=#333333;strokeColor=#9C9C9C;shadow=0;gradientColor=none;" vertex="1" parent="1">
          <mxGeometry x="450" y="460" width="110" height="40" as="geometry" />
        </mxCell>
        <mxCell id="Hng1eqhhagG_9mxlwol3-15" value="&lt;span style=&quot;font-size: 9px;&quot;&gt;NEWSLETTER&lt;/span&gt;" style="rounded=0;whiteSpace=wrap;html=1;fontSize=9;fillColor=#f5f5f5;fontColor=#333333;strokeColor=#9C9C9C;shadow=0;gradientColor=none;" vertex="1" parent="1">
          <mxGeometry x="200" y="460" width="110" height="40" as="geometry" />
        </mxCell>
        <mxCell id="Hng1eqhhagG_9mxlwol3-16" value="&lt;span style=&quot;font-size: 9px;&quot;&gt;CUSTOMIZED CONTENT&lt;/span&gt;" style="rounded=0;whiteSpace=wrap;html=1;fontSize=9;fillColor=#f5f5f5;fontColor=#333333;strokeColor=#9C9C9C;shadow=0;gradientColor=none;" vertex="1" parent="1">
          <mxGeometry x="325" y="460" width="110" height="40" as="geometry" />
        </mxCell>
        <mxCell id="Hng1eqhhagG_9mxlwol3-17" value="" style="ellipse;whiteSpace=wrap;html=1;aspect=fixed;fillColor=#f5f5f5;fontColor=#333333;strokeColor=#9C9C9C;shadow=0;gradientColor=none;" vertex="1" parent="1">
          <mxGeometry x="580" y="490" width="10" height="10" as="geometry" />
        </mxCell>
        <mxCell id="Hng1eqhhagG_9mxlwol3-18" value="" style="ellipse;whiteSpace=wrap;html=1;aspect=fixed;fillColor=#f5f5f5;fontColor=#333333;strokeColor=#9C9C9C;shadow=0;gradientColor=none;" vertex="1" parent="1">
          <mxGeometry x="600" y="490" width="10" height="10" as="geometry" />
        </mxCell>
        <mxCell id="Hng1eqhhagG_9mxlwol3-19" value="" style="ellipse;whiteSpace=wrap;html=1;aspect=fixed;fillColor=#f5f5f5;fontColor=#333333;strokeColor=#9C9C9C;shadow=0;gradientColor=none;" vertex="1" parent="1">
          <mxGeometry x="620" y="490" width="10" height="10" as="geometry" />
        </mxCell>
        <mxCell id="Hng1eqhhagG_9mxlwol3-20" value="" style="endArrow=none;dashed=1;html=1;dashPattern=1 3;strokeWidth=2;rounded=0;exitX=1;exitY=0.5;exitDx=0;exitDy=0;" edge="1" parent="1">
          <mxGeometry width="50" height="50" relative="1" as="geometry">
            <mxPoint x="640" y="300" as="sourcePoint" />
            <mxPoint x="640" y="300" as="targetPoint" />
          </mxGeometry>
        </mxCell>
        <mxCell id="Hng1eqhhagG_9mxlwol3-21" value="" style="endArrow=classic;html=1;rounded=0;entryX=0.5;entryY=0;entryDx=0;entryDy=0;" edge="1" parent="1" target="Hng1eqhhagG_9mxlwol3-3">
          <mxGeometry width="50" height="50" relative="1" as="geometry">
            <mxPoint x="380" y="260" as="sourcePoint" />
            <mxPoint x="530" y="260" as="targetPoint" />
          </mxGeometry>
        </mxCell>
        <mxCell id="Hng1eqhhagG_9mxlwol3-22" value="" style="endArrow=classic;html=1;rounded=0;entryX=1;entryY=0;entryDx=0;entryDy=0;" edge="1" parent="1" target="Hng1eqhhagG_9mxlwol3-3">
          <mxGeometry width="50" height="50" relative="1" as="geometry">
            <mxPoint x="470" y="260" as="sourcePoint" />
            <mxPoint x="530" y="260" as="targetPoint" />
            <Array as="points">
              <mxPoint x="470" y="300" />
            </Array>
          </mxGeometry>
        </mxCell>
        <mxCell id="Hng1eqhhagG_9mxlwol3-23" value="" style="endArrow=classic;html=1;rounded=0;entryX=0.5;entryY=0;entryDx=0;entryDy=0;" edge="1" parent="1" target="Hng1eqhhagG_9mxlwol3-15">
          <mxGeometry width="50" height="50" relative="1" as="geometry">
            <mxPoint x="320" y="390" as="sourcePoint" />
            <mxPoint x="530" y="260" as="targetPoint" />
            <Array as="points">
              <mxPoint x="255" y="430" />
            </Array>
          </mxGeometry>
        </mxCell>
        <mxCell id="Hng1eqhhagG_9mxlwol3-24" value="" style="endArrow=classic;html=1;rounded=0;entryX=0.5;entryY=0;entryDx=0;entryDy=0;" edge="1" parent="1" target="Hng1eqhhagG_9mxlwol3-16">
          <mxGeometry width="50" height="50" relative="1" as="geometry">
            <mxPoint x="380" y="410" as="sourcePoint" />
            <mxPoint x="530" y="260" as="targetPoint" />
          </mxGeometry>
        </mxCell>
        <mxCell id="Hng1eqhhagG_9mxlwol3-25" value="" style="endArrow=classic;html=1;rounded=0;entryX=0.5;entryY=0;entryDx=0;entryDy=0;" edge="1" parent="1" target="Hng1eqhhagG_9mxlwol3-14">
          <mxGeometry width="50" height="50" relative="1" as="geometry">
            <mxPoint x="440" y="390" as="sourcePoint" />
            <mxPoint x="530" y="260" as="targetPoint" />
            <Array as="points">
              <mxPoint x="505" y="430" />
            </Array>
          </mxGeometry>
        </mxCell>
        <mxCell id="Hng1eqhhagG_9mxlwol3-26" value="" style="shape=mxgraph.signs.tech.mail;html=1;pointerEvents=1;fillColor=#647687;strokeColor=none;verticalLabelPosition=bottom;verticalAlign=top;align=center;" vertex="1" parent="1">
          <mxGeometry x="240.66" y="492.75" width="28.67" height="21.5" as="geometry" />
        </mxCell>
        <mxCell id="Hng1eqhhagG_9mxlwol3-27" value="" style="html=1;verticalLabelPosition=bottom;align=center;labelBackgroundColor=#ffffff;verticalAlign=top;strokeWidth=3;strokeColor=#647687;shadow=0;dashed=0;shape=mxgraph.ios7.icons.star;" vertex="1" parent="1">
          <mxGeometry x="494" y="490" width="22.22" height="20" as="geometry" />
        </mxCell>
        <mxCell id="Hng1eqhhagG_9mxlwol3-28" value="" style="html=1;verticalLabelPosition=bottom;align=center;labelBackgroundColor=#ffffff;verticalAlign=top;strokeWidth=3;strokeColor=#647687;shadow=0;dashed=0;shape=mxgraph.ios7.icons.volume;pointerEvents=1;rotation=90;" vertex="1" parent="1">
          <mxGeometry x="368.32" y="489.44" width="25" height="31.63" as="geometry" />
        </mxCell>
        <mxCell id="Hng1eqhhagG_9mxlwol3-29" value="" style="endArrow=classic;html=1;rounded=0;entryX=0;entryY=0;entryDx=0;entryDy=0;" edge="1" parent="1" target="Hng1eqhhagG_9mxlwol3-3">
          <mxGeometry width="50" height="50" relative="1" as="geometry">
            <mxPoint x="290" y="260" as="sourcePoint" />
            <mxPoint x="330" y="330" as="targetPoint" />
            <Array as="points">
              <mxPoint x="290" y="300" />
            </Array>
          </mxGeometry>
        </mxCell>
        <mxCell id="Hng1eqhhagG_9mxlwol3-30" value="" style="group" vertex="1" connectable="0" parent="1">
          <mxGeometry x="260" y="190" width="60" height="60" as="geometry" />
        </mxCell>
        <mxCell id="Hng1eqhhagG_9mxlwol3-31" value="" style="ellipse;whiteSpace=wrap;html=1;aspect=fixed;fillColor=#dae8fc;strokeColor=#6c8ebf;" vertex="1" parent="Hng1eqhhagG_9mxlwol3-30">
          <mxGeometry width="60" height="60" as="geometry" />
        </mxCell>
        <mxCell id="Hng1eqhhagG_9mxlwol3-32" value="" style="sketch=0;pointerEvents=1;shadow=0;dashed=0;html=1;strokeColor=none;fillColor=#5F7DA8;labelPosition=center;verticalLabelPosition=bottom;verticalAlign=top;outlineConnect=0;align=center;shape=mxgraph.office.concepts.marketplace_shopping_bag;" vertex="1" parent="Hng1eqhhagG_9mxlwol3-30">
          <mxGeometry x="17.089999999999975" y="13.5" width="25.83" height="33" as="geometry" />
        </mxCell>
        <mxCell id="Hng1eqhhagG_9mxlwol3-33" value="" style="group" vertex="1" connectable="0" parent="1">
          <mxGeometry x="350" y="560" width="60" height="60" as="geometry" />
        </mxCell>
        <mxCell id="Hng1eqhhagG_9mxlwol3-34" value="" style="ellipse;whiteSpace=wrap;html=1;aspect=fixed;fillColor=#667F8A;strokeColor=#10739e;" vertex="1" parent="Hng1eqhhagG_9mxlwol3-33">
          <mxGeometry width="60" height="60" as="geometry" />
        </mxCell>
        <mxCell id="Hng1eqhhagG_9mxlwol3-35" value="" style="sketch=0;pointerEvents=1;shadow=0;dashed=0;html=1;strokeColor=#10739e;labelPosition=center;verticalLabelPosition=bottom;verticalAlign=top;outlineConnect=0;align=center;shape=mxgraph.office.users.user;fillColor=#b1ddf0;" vertex="1" parent="Hng1eqhhagG_9mxlwol3-33">
          <mxGeometry x="16.200000000000045" y="15" width="27.6" height="30" as="geometry" />
        </mxCell>
        <mxCell id="Hng1eqhhagG_9mxlwol3-36" value="&lt;font style=&quot;font-size: 10px;&quot;&gt;CUSTOMER&lt;/font&gt;" style="text;strokeColor=none;align=center;fillColor=none;html=1;verticalAlign=middle;whiteSpace=wrap;rounded=0;fontStyle=1" vertex="1" parent="1">
          <mxGeometry x="350.82" y="620" width="60" height="30" as="geometry" />
        </mxCell>
        <mxCell id="Hng1eqhhagG_9mxlwol3-37" value="" style="endArrow=classic;html=1;rounded=0;entryX=0;entryY=0;entryDx=0;entryDy=0;" edge="1" parent="1" target="Hng1eqhhagG_9mxlwol3-34">
          <mxGeometry width="50" height="50" relative="1" as="geometry">
            <mxPoint x="260" y="520" as="sourcePoint" />
            <mxPoint x="530" y="350" as="targetPoint" />
            <Array as="points">
              <mxPoint x="260" y="530" />
              <mxPoint x="359" y="530" />
            </Array>
          </mxGeometry>
        </mxCell>
        <mxCell id="Hng1eqhhagG_9mxlwol3-38" value="" style="endArrow=classic;html=1;rounded=0;entryX=0.5;entryY=0;entryDx=0;entryDy=0;" edge="1" parent="1" target="Hng1eqhhagG_9mxlwol3-34">
          <mxGeometry width="50" height="50" relative="1" as="geometry">
            <mxPoint x="380" y="530" as="sourcePoint" />
            <mxPoint x="530" y="350" as="targetPoint" />
          </mxGeometry>
        </mxCell>
        <mxCell id="Hng1eqhhagG_9mxlwol3-39" value="" style="endArrow=classic;html=1;rounded=0;entryX=1;entryY=0;entryDx=0;entryDy=0;" edge="1" parent="1" target="Hng1eqhhagG_9mxlwol3-34">
          <mxGeometry width="50" height="50" relative="1" as="geometry">
            <mxPoint x="505" y="520" as="sourcePoint" />
            <mxPoint x="530" y="360" as="targetPoint" />
            <Array as="points">
              <mxPoint x="505" y="530" />
              <mxPoint x="401" y="530" />
            </Array>
          </mxGeometry>
        </mxCell>
        <mxCell id="EVj1--vmmaDw3ZSqq3nR-1" value="&lt;font style=&quot;font-size: 10px;&quot;&gt;&lt;b&gt;AUDIENCE BUILDER&lt;/b&gt;&lt;/font&gt;" style="rounded=0;whiteSpace=wrap;html=1;fillColor=#647687;fontColor=#ffffff;strokeColor=none;align=left;gradientColor=#FFFFFF;gradientDirection=east;spacingRight=8;spacingLeft=1;" vertex="1" parent="1">
          <mxGeometry x="70" y="200" width="570" height="40" as="geometry" />
        </mxCell>
      </root>
    </mxGraphModel>
  </diagram>
  <diagram id="l1RsMRNYombl7G7Slt_5" name="Strona-4">
    <mxGraphModel dx="1242" dy="713" grid="1" gridSize="10" guides="1" tooltips="1" connect="1" arrows="1" fold="1" page="1" pageScale="1" pageWidth="827" pageHeight="1169" math="0" shadow="0">
      <root>
        <mxCell id="0" />
        <mxCell id="1" parent="0" />
        <mxCell id="wReaQEIZgZo1SOv05FrV-11" style="edgeStyle=orthogonalEdgeStyle;rounded=0;orthogonalLoop=1;jettySize=auto;html=1;exitX=0.5;exitY=1;exitDx=0;exitDy=0;" edge="1" parent="1" source="wReaQEIZgZo1SOv05FrV-2" target="wReaQEIZgZo1SOv05FrV-3">
          <mxGeometry relative="1" as="geometry">
            <mxPoint x="120" y="490" as="targetPoint" />
            <Array as="points">
              <mxPoint x="120" y="485" />
            </Array>
          </mxGeometry>
        </mxCell>
        <mxCell id="wReaQEIZgZo1SOv05FrV-2" value="&lt;font face=&quot;Verdana&quot;&gt;Push to&lt;/font&gt;&lt;div&gt;&lt;font face=&quot;Verdana&quot;&gt;GitHub&lt;/font&gt;&lt;/div&gt;" style="shape=step;perimeter=stepPerimeter;whiteSpace=wrap;html=1;fixedSize=1;fillColor=#f5f5f5;strokeColor=#666666;fontColor=#333333;" vertex="1" parent="1">
          <mxGeometry x="60" y="370" width="120" height="70" as="geometry" />
        </mxCell>
        <mxCell id="wReaQEIZgZo1SOv05FrV-3" value="Open as&amp;nbsp;&lt;div&gt;Draft&lt;/div&gt;" style="rounded=0;whiteSpace=wrap;html=1;fillColor=#ffe6cc;strokeColor=#d79b00;" vertex="1" parent="1">
          <mxGeometry x="140" y="460" width="80" height="40" as="geometry" />
        </mxCell>
        <mxCell id="wReaQEIZgZo1SOv05FrV-5" value="&lt;font face=&quot;Verdana&quot;&gt;Open PR&lt;/font&gt;" style="shape=step;perimeter=stepPerimeter;whiteSpace=wrap;html=1;fixedSize=1;fillColor=#EAFCF8;strokeColor=#6c8ebf;" vertex="1" parent="1">
          <mxGeometry x="180" y="370" width="120" height="70" as="geometry" />
        </mxCell>
        <mxCell id="wReaQEIZgZo1SOv05FrV-6" value="&lt;font face=&quot;Verdana&quot;&gt;DEV review&lt;/font&gt;" style="shape=step;perimeter=stepPerimeter;whiteSpace=wrap;html=1;fixedSize=1;fillColor=#fff2cc;strokeColor=#d6b656;" vertex="1" parent="1">
          <mxGeometry x="300" y="370" width="120" height="70" as="geometry" />
        </mxCell>
        <mxCell id="wReaQEIZgZo1SOv05FrV-8" value="&lt;font face=&quot;Verdana&quot;&gt;DOC review&lt;/font&gt;" style="shape=step;perimeter=stepPerimeter;whiteSpace=wrap;html=1;fixedSize=1;fillColor=#dae8fc;strokeColor=#6c8ebf;" vertex="1" parent="1">
          <mxGeometry x="420" y="370" width="120" height="70" as="geometry" />
        </mxCell>
        <mxCell id="wReaQEIZgZo1SOv05FrV-13" style="edgeStyle=orthogonalEdgeStyle;rounded=0;orthogonalLoop=1;jettySize=auto;html=1;exitX=1;exitY=0.5;exitDx=0;exitDy=0;entryX=0.5;entryY=1;entryDx=0;entryDy=0;" edge="1" parent="1" source="wReaQEIZgZo1SOv05FrV-3" target="wReaQEIZgZo1SOv05FrV-5">
          <mxGeometry relative="1" as="geometry">
            <mxPoint x="320" y="525" as="targetPoint" />
            <mxPoint x="300" y="480" as="sourcePoint" />
            <Array as="points">
              <mxPoint x="240" y="485" />
            </Array>
          </mxGeometry>
        </mxCell>
        <mxCell id="wReaQEIZgZo1SOv05FrV-14" value="&lt;font face=&quot;Verdana&quot;&gt;Merge&lt;/font&gt;" style="shape=step;perimeter=stepPerimeter;whiteSpace=wrap;html=1;fixedSize=1;fillColor=#d5e8d4;strokeColor=#82b366;" vertex="1" parent="1">
          <mxGeometry x="540" y="370" width="120" height="70" as="geometry" />
        </mxCell>
        <mxCell id="wReaQEIZgZo1SOv05FrV-15" value="Ready for merge" style="rounded=0;whiteSpace=wrap;html=1;fillColor=#EFFFD6;strokeColor=#82b366;" vertex="1" parent="1">
          <mxGeometry x="500" y="460" width="80" height="40" as="geometry" />
        </mxCell>
        <mxCell id="wReaQEIZgZo1SOv05FrV-16" style="edgeStyle=orthogonalEdgeStyle;rounded=0;orthogonalLoop=1;jettySize=auto;html=1;exitX=1;exitY=0.5;exitDx=0;exitDy=0;entryX=0.5;entryY=1;entryDx=0;entryDy=0;" edge="1" parent="1">
          <mxGeometry relative="1" as="geometry">
            <mxPoint x="600" y="440" as="targetPoint" />
            <mxPoint x="580" y="485" as="sourcePoint" />
            <Array as="points">
              <mxPoint x="600" y="485" />
            </Array>
          </mxGeometry>
        </mxCell>
        <mxCell id="wReaQEIZgZo1SOv05FrV-17" style="edgeStyle=orthogonalEdgeStyle;rounded=0;orthogonalLoop=1;jettySize=auto;html=1;exitX=0.5;exitY=1;exitDx=0;exitDy=0;" edge="1" parent="1">
          <mxGeometry relative="1" as="geometry">
            <mxPoint x="500" y="485" as="targetPoint" />
            <mxPoint x="480" y="440" as="sourcePoint" />
            <Array as="points">
              <mxPoint x="480" y="485" />
            </Array>
          </mxGeometry>
        </mxCell>
      </root>
    </mxGraphModel>
  </diagram>
  <diagram id="yVQzG8lYDQLyS6h5a2si" name="Strona-5">
    <mxGraphModel dx="1306" dy="729" grid="1" gridSize="10" guides="1" tooltips="1" connect="1" arrows="1" fold="1" page="1" pageScale="1" pageWidth="827" pageHeight="1169" math="0" shadow="0">
      <root>
        <mxCell id="0" />
        <mxCell id="1" parent="0" />
        <mxCell id="8g4ws3_Zxut3U1UKILJR-9" value="&lt;b&gt;&lt;font color=&quot;#ffffff&quot; face=&quot;Tahoma&quot;&gt;CLOUD PLATFORM AS A SERVICE&lt;/font&gt;&lt;/b&gt;" style="shape=cube;whiteSpace=wrap;html=1;boundedLbl=1;backgroundOutline=1;darkOpacity=0.05;darkOpacity2=0.1;size=30;fillColor=#F88185;strokeColor=none;shadow=1;" vertex="1" parent="1">
          <mxGeometry x="290" y="450" width="270" height="60" as="geometry" />
        </mxCell>
        <mxCell id="8g4ws3_Zxut3U1UKILJR-1" value="" style="sketch=0;pointerEvents=1;shadow=1;dashed=0;html=1;labelPosition=center;verticalLabelPosition=bottom;outlineConnect=0;verticalAlign=top;align=center;shape=mxgraph.office.clouds.cloud;strokeColor=none;" vertex="1" parent="1">
          <mxGeometry x="390" y="500" width="74" height="42.5" as="geometry" />
        </mxCell>
        <mxCell id="8g4ws3_Zxut3U1UKILJR-6" value="HEADLESS" style="shape=cube;whiteSpace=wrap;html=1;boundedLbl=1;backgroundOutline=1;darkOpacity=0.05;darkOpacity2=0.1;size=30;fillColor=#D9D9D9;fontColor=#333333;strokeColor=none;shadow=1;" vertex="1" parent="1">
          <mxGeometry x="290" y="410" width="230" height="50" as="geometry" />
        </mxCell>
        <mxCell id="8g4ws3_Zxut3U1UKILJR-7" value="EXPERIENCE" style="shape=cube;whiteSpace=wrap;html=1;boundedLbl=1;backgroundOutline=1;darkOpacity=0.05;darkOpacity2=0.1;size=30;fillColor=#E6E6E6;fontColor=#333333;strokeColor=none;shadow=1;" vertex="1" parent="1">
          <mxGeometry x="290" y="370" width="190" height="50" as="geometry" />
        </mxCell>
        <mxCell id="8g4ws3_Zxut3U1UKILJR-8" value="COMMERCE" style="shape=cube;whiteSpace=wrap;html=1;boundedLbl=1;backgroundOutline=1;darkOpacity=0.05;darkOpacity2=0.1;size=30;fillColor=#faf9f9;fontColor=#333333;strokeColor=none;gradientColor=none;shadow=1;" vertex="1" parent="1">
          <mxGeometry x="290" y="330" width="150" height="50" as="geometry" />
        </mxCell>
      </root>
    </mxGraphModel>
  </diagram>
  <diagram id="m7wUo9GHv2srRSZR2Ft6" name="Strona-6">
    <mxGraphModel dx="1306" dy="729" grid="1" gridSize="10" guides="1" tooltips="1" connect="1" arrows="1" fold="1" page="1" pageScale="1" pageWidth="827" pageHeight="1169" math="0" shadow="0">
      <root>
        <mxCell id="0" />
        <mxCell id="1" parent="0" />
        <mxCell id="eNVyImffK5BOn7dZOU2T-4" value="IBEXA CLOUD" style="shape=cylinder3;whiteSpace=wrap;html=1;boundedLbl=1;backgroundOutline=1;size=35;" vertex="1" parent="1">
          <mxGeometry x="240" y="390" width="330" height="100" as="geometry" />
        </mxCell>
        <mxCell id="eNVyImffK5BOn7dZOU2T-1" value="" style="ellipse;whiteSpace=wrap;html=1;fillColor=none;dashed=1;dashPattern=8 8;" vertex="1" parent="1">
          <mxGeometry x="240" y="350" width="330" height="80" as="geometry" />
        </mxCell>
        <mxCell id="eNVyImffK5BOn7dZOU2T-2" value="IBEXA DXP" style="shape=cylinder3;whiteSpace=wrap;html=1;boundedLbl=1;backgroundOutline=1;size=18;" vertex="1" parent="1">
          <mxGeometry x="347.5" y="330" width="115" height="70" as="geometry" />
        </mxCell>
        <mxCell id="eNVyImffK5BOn7dZOU2T-5" value="" style="shape=cylinder3;whiteSpace=wrap;html=1;boundedLbl=1;backgroundOutline=1;size=15;fillColor=#f8cecc;strokeColor=#b85450;" vertex="1" parent="1">
          <mxGeometry x="240" y="340" width="60" height="40" as="geometry" />
        </mxCell>
        <mxCell id="eNVyImffK5BOn7dZOU2T-6" value="" style="shape=cylinder3;whiteSpace=wrap;html=1;boundedLbl=1;backgroundOutline=1;size=15;fillColor=#f8cecc;gradientColor=#ea6b66;strokeColor=#b85450;" vertex="1" parent="1">
          <mxGeometry x="375" y="410" width="60" height="40" as="geometry" />
        </mxCell>
        <mxCell id="eNVyImffK5BOn7dZOU2T-7" value="" style="shape=cylinder3;whiteSpace=wrap;html=1;boundedLbl=1;backgroundOutline=1;size=15;fillColor=#f5f5f5;fontColor=#333333;strokeColor=#666666;" vertex="1" parent="1">
          <mxGeometry x="510" y="340" width="60" height="40" as="geometry" />
        </mxCell>
      </root>
    </mxGraphModel>
  </diagram>
  <diagram id="r6ahZ9uQurjvcR1DNd--" name="Strona-7">
    <mxGraphModel dx="1306" dy="729" grid="1" gridSize="10" guides="1" tooltips="1" connect="1" arrows="1" fold="1" page="1" pageScale="1" pageWidth="827" pageHeight="1169" math="0" shadow="0">
      <root>
        <mxCell id="0" />
        <mxCell id="1" parent="0" />
        <mxCell id="gPWVgj5GPJZ5kp33LO-0-2" value="" style="rounded=0;whiteSpace=wrap;html=1;fillColor=#F5F5F5;strokeColor=none;gradientColor=none;shadow=1;" parent="1" vertex="1">
          <mxGeometry x="40" y="260" width="560" height="340" as="geometry" />
        </mxCell>
        <mxCell id="gPWVgj5GPJZ5kp33LO-0-3" value="&lt;b&gt;&lt;font style=&quot;font-size: 14px;&quot;&gt;FORM BUILDER&lt;/font&gt;&lt;/b&gt;" style="rounded=0;whiteSpace=wrap;html=1;fillColor=#bac8d3;strokeColor=none;" parent="1" vertex="1">
          <mxGeometry x="40" y="260" width="560" height="60" as="geometry" />
        </mxCell>
        <mxCell id="gPWVgj5GPJZ5kp33LO-0-4" value="" style="rounded=0;whiteSpace=wrap;html=1;fillColor=#F5F5F5;strokeColor=default;gradientColor=none;shadow=1;" parent="1" vertex="1">
          <mxGeometry x="470" y="350" width="210" height="290" as="geometry" />
        </mxCell>
        <mxCell id="gPWVgj5GPJZ5kp33LO-0-5" value="&lt;b&gt;&lt;font style=&quot;font-size: 12px;&quot;&gt;FIELDS&lt;/font&gt;&lt;/b&gt;" style="rounded=0;whiteSpace=wrap;html=1;fillColor=#bac8d3;strokeColor=none;" parent="1" vertex="1">
          <mxGeometry x="470" y="350" width="210" height="40" as="geometry" />
        </mxCell>
        <mxCell id="gPWVgj5GPJZ5kp33LO-0-6" value="FORM" style="rounded=1;whiteSpace=wrap;html=1;dashed=1;verticalAlign=top;" parent="1" vertex="1">
          <mxGeometry x="90" y="350" width="340" height="200" as="geometry" />
        </mxCell>
        <mxCell id="gPWVgj5GPJZ5kp33LO-0-7" value="" style="rounded=0;whiteSpace=wrap;html=1;fillColor=#d5e8d4;strokeColor=#82b366;" parent="1" vertex="1">
          <mxGeometry x="490" y="410" width="170" height="20" as="geometry" />
        </mxCell>
        <mxCell id="gPWVgj5GPJZ5kp33LO-0-8" value="" style="rounded=0;whiteSpace=wrap;html=1;fillColor=#ffe6cc;strokeColor=#d79b00;" parent="1" vertex="1">
          <mxGeometry x="490" y="440" width="170" height="20" as="geometry" />
        </mxCell>
        <mxCell id="gPWVgj5GPJZ5kp33LO-0-9" value="" style="rounded=0;whiteSpace=wrap;html=1;fillColor=#dae8fc;strokeColor=#6c8ebf;shadow=1;" parent="1" vertex="1">
          <mxGeometry x="450" y="470" width="170" height="20" as="geometry" />
        </mxCell>
        <mxCell id="gPWVgj5GPJZ5kp33LO-0-10" value="" style="rounded=0;whiteSpace=wrap;html=1;fillColor=#bac8d3;strokeColor=#23445d;shadow=1;" parent="1" vertex="1">
          <mxGeometry x="450" y="500" width="170" height="20" as="geometry" />
        </mxCell>
        <mxCell id="gPWVgj5GPJZ5kp33LO-0-11" value="" style="rounded=0;whiteSpace=wrap;html=1;fillColor=#b1ddf0;strokeColor=#10739e;" parent="1" vertex="1">
          <mxGeometry x="490" y="530" width="170" height="20" as="geometry" />
        </mxCell>
        <mxCell id="gPWVgj5GPJZ5kp33LO-0-12" value="" style="rounded=0;whiteSpace=wrap;html=1;fillColor=#b0e3e6;strokeColor=#0e8088;shadow=1;" parent="1" vertex="1">
          <mxGeometry x="450" y="564.5" width="170" height="20" as="geometry" />
        </mxCell>
        <mxCell id="gPWVgj5GPJZ5kp33LO-0-13" value="" style="shape=flexArrow;endArrow=classic;html=1;rounded=0;fillColor=#bac8d3;strokeColor=none;entryX=0.794;entryY=0.4;entryDx=0;entryDy=0;entryPerimeter=0;" parent="1" target="gPWVgj5GPJZ5kp33LO-0-6" edge="1">
          <mxGeometry width="50" height="50" relative="1" as="geometry">
            <mxPoint x="440" y="475" as="sourcePoint" />
            <mxPoint x="400" y="425" as="targetPoint" />
          </mxGeometry>
        </mxCell>
        <mxCell id="gPWVgj5GPJZ5kp33LO-0-16" value="" style="rounded=0;whiteSpace=wrap;html=1;fillColor=#dae8fc;strokeColor=#6c8ebf;shadow=1;" parent="1" vertex="1">
          <mxGeometry x="175" y="420" width="170" height="20" as="geometry" />
        </mxCell>
        <mxCell id="gPWVgj5GPJZ5kp33LO-0-17" value="" style="rounded=0;whiteSpace=wrap;html=1;fillColor=#bac8d3;strokeColor=#23445d;shadow=1;" parent="1" vertex="1">
          <mxGeometry x="175" y="450" width="170" height="20" as="geometry" />
        </mxCell>
        <mxCell id="gPWVgj5GPJZ5kp33LO-0-18" value="" style="rounded=0;whiteSpace=wrap;html=1;fillColor=#b0e3e6;strokeColor=#0e8088;shadow=1;" parent="1" vertex="1">
          <mxGeometry x="175" y="480" width="170" height="20" as="geometry" />
        </mxCell>
        <mxCell id="gPWVgj5GPJZ5kp33LO-0-14" value="" style="shape=flexArrow;endArrow=classic;html=1;rounded=0;fillColor=#bac8d3;strokeColor=none;entryX=0.959;entryY=0.775;entryDx=0;entryDy=0;entryPerimeter=0;" parent="1" target="gPWVgj5GPJZ5kp33LO-0-18" edge="1">
          <mxGeometry width="50" height="50" relative="1" as="geometry">
            <mxPoint x="440" y="570" as="sourcePoint" />
            <mxPoint x="400" y="520" as="targetPoint" />
          </mxGeometry>
        </mxCell>
        <mxCell id="gPWVgj5GPJZ5kp33LO-0-15" value="" style="shape=flexArrow;endArrow=classic;html=1;rounded=0;fillColor=#bac8d3;strokeColor=none;entryX=0.735;entryY=0.6;entryDx=0;entryDy=0;entryPerimeter=0;" parent="1" target="gPWVgj5GPJZ5kp33LO-0-6" edge="1">
          <mxGeometry width="50" height="50" relative="1" as="geometry">
            <mxPoint x="440" y="510" as="sourcePoint" />
            <mxPoint x="400" y="460" as="targetPoint" />
          </mxGeometry>
        </mxCell>
      </root>
    </mxGraphModel>
  </diagram>
  <diagram id="jT6H1_K-UD2p4teSsOgN" name="Strona-8">
    <mxGraphModel dx="1306" dy="729" grid="1" gridSize="10" guides="1" tooltips="1" connect="1" arrows="1" fold="1" page="1" pageScale="1" pageWidth="827" pageHeight="1169" math="0" shadow="0">
      <root>
        <mxCell id="0" />
        <mxCell id="1" parent="0" />
        <mxCell id="5iQZADREwVD67DOznwzo-1" value="" style="rounded=0;whiteSpace=wrap;html=1;fillColor=#F5F5F5;strokeColor=none;gradientColor=none;shadow=1;" vertex="1" parent="1">
          <mxGeometry x="60" y="200" width="560" height="340" as="geometry" />
        </mxCell>
        <mxCell id="5iQZADREwVD67DOznwzo-2" value="&lt;b&gt;&lt;font style=&quot;font-size: 14px;&quot;&gt;CUSTOMIZABLE DASHBOARD&lt;/font&gt;&lt;/b&gt;" style="rounded=0;whiteSpace=wrap;html=1;fillColor=#dae8fc;strokeColor=none;" vertex="1" parent="1">
          <mxGeometry x="60" y="200" width="560" height="60" as="geometry" />
        </mxCell>
        <mxCell id="5iQZADREwVD67DOznwzo-3" value="" style="rounded=0;whiteSpace=wrap;html=1;fillColor=#F5F5F5;strokeColor=default;gradientColor=none;shadow=1;" vertex="1" parent="1">
          <mxGeometry x="490" y="290" width="210" height="290" as="geometry" />
        </mxCell>
        <mxCell id="5iQZADREwVD67DOznwzo-4" value="&lt;b&gt;&lt;font style=&quot;font-size: 12px;&quot;&gt;ELEMENTS&lt;/font&gt;&lt;/b&gt;" style="rounded=0;whiteSpace=wrap;html=1;fillColor=#dae8fc;strokeColor=none;" vertex="1" parent="1">
          <mxGeometry x="490" y="290" width="210" height="40" as="geometry" />
        </mxCell>
        <mxCell id="5iQZADREwVD67DOznwzo-5" value="&amp;nbsp; &amp;nbsp; DROP ZONE 1" style="rounded=1;whiteSpace=wrap;html=1;dashed=1;verticalAlign=top;align=left;" vertex="1" parent="1">
          <mxGeometry x="110" y="290" width="350" height="70" as="geometry" />
        </mxCell>
        <mxCell id="5iQZADREwVD67DOznwzo-6" value="" style="rounded=0;whiteSpace=wrap;html=1;fillColor=#e1d5e7;strokeColor=#9673a6;" vertex="1" parent="1">
          <mxGeometry x="470" y="350" width="170" height="20" as="geometry" />
        </mxCell>
        <mxCell id="5iQZADREwVD67DOznwzo-7" value="" style="rounded=0;whiteSpace=wrap;html=1;fillColor=#ffe6cc;strokeColor=#d79b00;" vertex="1" parent="1">
          <mxGeometry x="510" y="380" width="170" height="20" as="geometry" />
        </mxCell>
        <mxCell id="5iQZADREwVD67DOznwzo-8" value="" style="rounded=0;whiteSpace=wrap;html=1;fillColor=#dae8fc;strokeColor=#6c8ebf;shadow=1;" vertex="1" parent="1">
          <mxGeometry x="510" y="410" width="170" height="20" as="geometry" />
        </mxCell>
        <mxCell id="5iQZADREwVD67DOznwzo-9" value="" style="rounded=0;whiteSpace=wrap;html=1;fillColor=#b0e3e6;strokeColor=#0e8088;shadow=1;" vertex="1" parent="1">
          <mxGeometry x="470" y="440" width="170" height="20" as="geometry" />
        </mxCell>
        <mxCell id="5iQZADREwVD67DOznwzo-10" value="" style="rounded=0;whiteSpace=wrap;html=1;fillColor=#b1ddf0;strokeColor=#10739e;" vertex="1" parent="1">
          <mxGeometry x="470" y="470" width="170" height="20" as="geometry" />
        </mxCell>
        <mxCell id="5iQZADREwVD67DOznwzo-11" value="" style="rounded=0;whiteSpace=wrap;html=1;fillColor=#d5e8d4;strokeColor=#82b366;shadow=1;" vertex="1" parent="1">
          <mxGeometry x="510" y="500" width="170" height="20" as="geometry" />
        </mxCell>
        <mxCell id="5iQZADREwVD67DOznwzo-13" value="" style="rounded=0;whiteSpace=wrap;html=1;fillColor=#e1d5e7;strokeColor=#9673a6;shadow=1;" vertex="1" parent="1">
          <mxGeometry x="130" y="320" width="310" height="20" as="geometry" />
        </mxCell>
        <mxCell id="5iQZADREwVD67DOznwzo-18" value="&amp;nbsp; &amp;nbsp; DROP ZONE 2" style="rounded=1;whiteSpace=wrap;html=1;dashed=1;verticalAlign=top;align=left;" vertex="1" parent="1">
          <mxGeometry x="110" y="380" width="160" height="130" as="geometry" />
        </mxCell>
        <mxCell id="5iQZADREwVD67DOznwzo-19" value="&amp;nbsp; &amp;nbsp; DROP ZONE 3" style="rounded=1;whiteSpace=wrap;html=1;dashed=1;verticalAlign=top;align=left;" vertex="1" parent="1">
          <mxGeometry x="300" y="380" width="160" height="130" as="geometry" />
        </mxCell>
        <mxCell id="5iQZADREwVD67DOznwzo-14" value="" style="rounded=0;whiteSpace=wrap;html=1;fillColor=#bac8d3;strokeColor=#23445d;shadow=1;" vertex="1" parent="1">
          <mxGeometry x="130" y="420" width="130" height="20" as="geometry" />
        </mxCell>
        <mxCell id="5iQZADREwVD67DOznwzo-15" value="" style="rounded=0;whiteSpace=wrap;html=1;fillColor=#b0e3e6;strokeColor=#0e8088;shadow=1;" vertex="1" parent="1">
          <mxGeometry x="320" y="420" width="130" height="20" as="geometry" />
        </mxCell>
        <mxCell id="5iQZADREwVD67DOznwzo-12" value="" style="shape=flexArrow;endArrow=classic;html=1;rounded=0;fillColor=#bac8d3;strokeColor=none;exitX=0;exitY=0.5;exitDx=0;exitDy=0;" edge="1" parent="1" source="5iQZADREwVD67DOznwzo-6">
          <mxGeometry width="50" height="50" relative="1" as="geometry">
            <mxPoint x="460" y="415" as="sourcePoint" />
            <mxPoint x="420" y="330" as="targetPoint" />
          </mxGeometry>
        </mxCell>
        <mxCell id="5iQZADREwVD67DOznwzo-17" value="" style="shape=flexArrow;endArrow=classic;html=1;rounded=0;fillColor=#bac8d3;strokeColor=none;exitX=0;exitY=0.25;exitDx=0;exitDy=0;entryX=0.462;entryY=0.5;entryDx=0;entryDy=0;entryPerimeter=0;" edge="1" parent="1" target="5iQZADREwVD67DOznwzo-15" source="5iQZADREwVD67DOznwzo-9">
          <mxGeometry width="50" height="50" relative="1" as="geometry">
            <mxPoint x="460" y="450" as="sourcePoint" />
            <mxPoint x="420" y="400" as="targetPoint" />
          </mxGeometry>
        </mxCell>
        <mxCell id="5iQZADREwVD67DOznwzo-16" value="" style="shape=flexArrow;endArrow=classic;html=1;rounded=0;fillColor=#bac8d3;strokeColor=none;exitX=0;exitY=0.75;exitDx=0;exitDy=0;" edge="1" parent="1" target="5iQZADREwVD67DOznwzo-14" source="5iQZADREwVD67DOznwzo-10">
          <mxGeometry width="50" height="50" relative="1" as="geometry">
            <mxPoint x="460" y="510" as="sourcePoint" />
            <mxPoint x="420" y="460" as="targetPoint" />
          </mxGeometry>
        </mxCell>
      </root>
    </mxGraphModel>
  </diagram>
</mxfile>
